<svg width="230" height="230" viewBox="0 0 230 230" fill="none" xmlns="http://www.w3.org/2000/svg">
<g clip-path="url(#clip0_56_4)">
<path d="M115 230C178.513 230 230 178.513 230 115C230 51.4873 178.513 0 115 0C51.4873 0 0 51.4873 0 115C0 178.513 51.4873 230 115 230Z" fill="#A27C48"/>
<path d="M159.085 111.54C159.691 111.892 160.195 112.396 160.544 113.004C160.894 113.611 161.078 114.299 161.078 115C161.078 115.701 160.894 116.389 160.544 116.996C160.195 117.604 159.691 118.108 159.085 118.46L94.5072 155.92C93.8993 156.273 93.2091 156.459 92.5063 156.46C91.8035 156.461 91.1128 156.277 90.5037 155.926C89.8947 155.575 89.3889 155.07 89.0371 154.462C88.6854 153.853 88.5002 153.163 88.5002 152.46V77.541C88.5002 76.8381 88.6854 76.1477 89.0371 75.5392C89.3889 74.9307 89.8947 74.4257 90.5037 74.0749C91.1128 73.7241 91.8035 73.54 92.5063 73.541C93.2091 73.5421 93.8993 73.7283 94.5072 74.081L159.085 111.54Z" fill="white"/>
</g>
<defs>
<clipPath id="clip0_56_4">
<rect width="230" height="230" fill="white"/>
</clipPath>
</defs>
</svg>
